<svg width="90" height="90" viewBox="0 0 90 90" fill="none" xmlns="http://www.w3.org/2000/svg">
<g filter="url(#filter0_b)">
<circle cx="45" cy="45" r="45" fill="currentColor" fill-opacity="0"/>
<circle cx="45" cy="45" r="44" stroke="currentColor" stroke-width="0"/>
</g>
<g clip-path="url(#clip0)">
<path d="M69.5 48.8937V69.5H60.1083V52.5021C60.1083 49.7703 59.2915 47.7153 58.0102 46.3513C56.7295 44.9881 55.0186 44.3529 53.3123 44.407C49.8793 44.5158 46.5479 47.3912 46.5479 52.5021V69.5H37.1958V37.1666H46.5458V41.1562L47.4857 41.3939C49.5395 37.5931 55.0311 35.464 60.0757 36.331C62.5756 36.7607 64.9234 37.9231 66.6468 39.9467C68.3679 41.9676 69.5 44.8871 69.5 48.8937ZM29.875 27.2916C29.875 29.8964 27.7826 32 25.2083 32C22.6341 32 20.5417 29.8964 20.5417 27.2916C20.5417 24.6889 22.6342 22.5833 25.2083 22.5833C27.7824 22.5833 29.875 24.6889 29.875 27.2916ZM20.5 69.5V37.1666H29.9167V69.5H20.5Z" stroke="currentColor"/>
</g>
<defs>
<filter id="filter0_b" x="-6" y="-6" width="102" height="102" filterUnits="userSpaceOnUse" color-interpolation-filters="sRGB">
<feFlood flood-opacity="0" result="BackgroundImageFix"/>
<feGaussianBlur in="BackgroundImage" stdDeviation="3"/>
<feComposite in2="SourceAlpha" operator="in" result="effect1_backgroundBlur"/>
<feBlend mode="normal" in="SourceGraphic" in2="effect1_backgroundBlur" result="shape"/>
</filter>
<clipPath id="clip0">
<rect width="50" height="50" fill="currentColor" transform="translate(20 20)"/>
</clipPath>
</defs>
</svg>
