<svg width="90" height="90" viewBox="0 0 90 90" fill="none" xmlns="http://www.w3.org/2000/svg">
<g filter="url(#filter0_b)">
<circle cx="45" cy="45" r="45" fill="currentColor" fill-opacity="0"/>
<circle cx="45" cy="45" r="44" stroke="currentColor" stroke-width="0"/>
</g>
<path d="M58.1312 30.3688C58.2837 29.8926 58.2832 29.8924 58.2827 29.8922L58.2817 29.8919L58.2794 29.8912L58.2744 29.8897L58.262 29.886C58.2527 29.8834 58.2412 29.8803 58.2277 29.8769C58.2005 29.8701 58.1649 29.8622 58.1207 29.8542C58.0322 29.8382 57.9096 29.8222 57.752 29.815C57.4364 29.8006 56.9829 29.8218 56.3835 29.9483C55.2171 30.1944 53.5024 30.8381 51.1732 32.3889C49.1937 31.8624 47.0896 31.5998 45.0025 31.5896L44.9975 31.5896C42.9106 31.5998 40.8084 31.8623 38.8328 32.3888C36.5015 30.838 34.7847 30.1943 33.6169 29.9482C33.0167 29.8218 32.5627 29.8006 32.2467 29.815C32.0888 29.8222 31.9661 29.8382 31.8776 29.8542C31.8333 29.8621 31.7977 29.8701 31.7705 29.8768C31.7569 29.8802 31.7455 29.8833 31.7362 29.886L31.7238 29.8896L31.7187 29.8911L31.7165 29.8918L31.7155 29.8921C31.715 29.8923 31.7145 29.8925 31.8667 30.3688L31.7145 29.8925L31.4886 29.9646L31.4016 30.1852C30.1343 33.3962 30.7057 35.8782 31.0493 36.8784C29.4926 38.6807 28.5479 40.9521 28.5479 43.6958C28.5479 48.594 30.0463 51.6801 32.3387 53.6096C34.3529 55.3049 36.9194 56.0539 39.4333 56.4252C38.9617 57.0848 38.586 57.9589 38.3986 59.0428C37.7024 59.3251 36.6574 59.6281 35.5578 59.5299C34.3543 59.4224 33.0397 58.8326 32.0091 57.0685L32.0063 57.0635L31.9915 57.0377C31.9789 57.0163 31.9611 56.9864 31.938 56.9492C31.8919 56.875 31.8245 56.7714 31.7361 56.6477C31.5596 56.401 31.2966 56.0709 30.9482 55.7342C30.2549 55.0641 29.1922 54.3393 27.7785 54.2408L27.7646 54.2398L27.7506 54.2396L27.7437 54.7396C27.7506 54.2396 27.7504 54.2396 27.7502 54.2396L27.7499 54.2396L27.7489 54.2396L27.7463 54.2396L27.7385 54.2395L27.713 54.2396C27.6918 54.2398 27.6623 54.2402 27.6263 54.2415C27.5548 54.2439 27.4554 54.2494 27.3434 54.2616C27.1393 54.2839 26.8174 54.3357 26.5595 54.4822C26.4252 54.5585 26.2617 54.6866 26.1704 54.8954C26.0723 55.1198 26.0934 55.3538 26.1796 55.5595C26.331 55.921 26.7172 56.2801 27.2885 56.671L27.3219 56.6939L27.3549 56.7093L27.3556 56.7096L27.3568 56.7102L27.3604 56.7121C27.3669 56.7155 27.3793 56.722 27.397 56.732C27.4324 56.7521 27.4889 56.786 27.5626 56.8364C27.71 56.9371 27.9262 57.1038 28.1788 57.357C28.6817 57.8611 29.3359 58.7149 29.8786 60.0894L29.8806 60.0952C29.8849 60.1076 29.8909 60.124 29.8986 60.1443C29.914 60.1849 29.9365 60.2408 29.9672 60.3093C30.0284 60.4464 30.1224 60.6349 30.2577 60.8535C30.5282 61.2905 30.9663 61.851 31.6405 62.3584C32.9281 63.3273 35.0053 64.0499 38.25 63.475V67.5208C38.25 67.7616 38.1747 67.9707 38.0454 68.095C37.9371 68.1992 37.7106 68.3207 37.2216 68.2371C27.5021 64.9867 20.5 55.8115 20.5 45C20.5 31.4699 31.4719 20.5 45 20.5C58.5301 20.5 69.5 31.4699 69.5 45C69.5 55.8082 62.505 64.9819 52.7928 68.2357C52.2902 68.3265 52.0617 68.2039 51.9544 68.1011C51.8258 67.9779 51.75 67.7675 51.75 67.5208V60.6604C51.75 58.7853 51.2451 57.3667 50.548 56.4064C53.0653 56.0429 55.6345 55.3037 57.6511 53.6157C59.9491 51.6922 61.45 48.6063 61.45 43.6958C61.45 40.9553 60.5138 38.6815 58.9511 36.878C59.2949 35.8779 59.8649 33.3963 58.5963 30.185L58.5093 29.9648L58.2837 29.8926L58.1312 30.3688Z" stroke="currentColor"/>
<defs>
<filter id="filter0_b" x="-6" y="-6" width="102" height="102" filterUnits="userSpaceOnUse" color-interpolation-filters="sRGB">
<feFlood flood-opacity="0" result="BackgroundImageFix"/>
<feGaussianBlur in="BackgroundImage" stdDeviation="3"/>
<feComposite in2="SourceAlpha" operator="in" result="effect1_backgroundBlur"/>
<feBlend mode="normal" in="SourceGraphic" in2="effect1_backgroundBlur" result="shape"/>
</filter>
</defs>
</svg>
