<svg width="90" height="90" viewBox="0 0 90 90" fill="none" xmlns="http://www.w3.org/2000/svg">
<g filter="url(#filter0_b)">
<circle cx="45" cy="45" r="45" fill="currentColor" fill-opacity="0"/>
</g>
<path d="M53.3333 66.3333H53.8333V65.8333V49.6667H57V69.5H24.6667V49.6667H27.8333V65.8333V66.3333H28.3333H53.3333ZM50.75 63.25H30.9167V60.0833H50.75V63.25ZM59.9658 20.5782L63.1718 39.0408L60.003 39.5906L56.7989 21.1279L59.9658 20.5782ZM50.5042 57.3572L31.1772 55.6157L31.4724 52.4164L50.7816 54.3481L50.5042 57.3572ZM51.0594 51.7437L32.6378 46.7948L33.4722 43.6953L51.8347 48.858L51.0594 51.7437ZM52.6351 46.433L36.2105 36.8036L37.8459 34.0334L54.2689 43.6612L52.6351 46.433ZM47.5873 24.8114L58.1468 40.2957L55.4897 42.1073L44.9302 26.6231L47.5873 24.8114Z" stroke="currentColor"/>
<defs>
<filter id="filter0_b" x="-6" y="-6" width="102" height="102" filterUnits="userSpaceOnUse" color-interpolation-filters="sRGB">
<feFlood flood-opacity="0" result="BackgroundImageFix"/>
<feGaussianBlur in="BackgroundImage" stdDeviation="3"/>
<feComposite in2="SourceAlpha" operator="in" result="effect1_backgroundBlur"/>
<feBlend mode="normal" in="SourceGraphic" in2="effect1_backgroundBlur" result="shape"/>
</filter>
</defs>
</svg>
