<svg width="90" height="90" viewBox="0 0 90 90" fill="none" xmlns="http://www.w3.org/2000/svg">
<g clip-path="url(#clip0_527_205)">
<g clip-path="url(#clip1_527_205)">
<path d="M47.0492 55.3999L47.0522 55.4005C47.7541 55.5424 48.3868 55.587 48.8576 55.5521C49.0942 55.5346 49.271 55.4983 49.3888 55.4557C49.3988 55.452 49.408 55.4485 49.4165 55.4451C49.4127 55.4434 49.4087 55.4416 49.4047 55.4399C49.303 55.3953 49.1609 55.3474 48.9676 55.2963C48.9671 55.2962 48.9666 55.2961 48.9661 55.2959L49.0938 54.8125L47.0492 55.3999ZM47.0492 55.3999C46.0317 55.2007 45.2278 54.8154 44.2589 53.8722C43.2654 52.9049 42.1115 51.3634 40.4146 48.8456L40.4088 48.8368C40.1336 48.4241 39.9175 48.0999 39.7354 47.8521C39.5531 47.604 39.382 47.4 39.1902 47.2474C38.7898 46.9288 38.369 46.8993 37.888 46.8657C37.8644 46.864 37.8407 46.8623 37.8169 46.8606L37.8152 46.8605M47.0492 55.3999L37.8152 46.8605M39.5854 49.4044L39.584 49.4024C39.3001 48.9765 39.0965 48.6714 38.9296 48.4443C38.7614 48.2153 38.6532 48.098 38.5676 48.0299C38.433 47.9228 38.3285 47.8997 37.746 47.8581L39.5854 49.4044ZM39.5854 49.4044C41.2792 51.9178 42.4846 53.5404 43.5614 54.5887C44.6625 55.6608 45.6395 56.1427 46.8558 56.3811C47.622 56.5358 48.348 56.5926 48.9315 56.5494C49.2222 56.5279 49.4966 56.4802 49.7293 56.3959C49.9508 56.3157 50.2036 56.1773 50.352 55.9268L50.352 55.9268L50.355 55.9217C50.4383 55.7772 50.5126 55.5939 50.5077 55.3851C50.5023 55.1588 50.4058 54.9686 50.2649 54.8235C50.135 54.6897 49.9698 54.5957 49.8062 54.524C49.6386 54.4505 49.4415 54.3872 49.2214 54.3291L49.219 54.3284C48.0718 54.0315 46.8861 53.045 44.4963 50.1364M39.5854 49.4044L36.8836 47.8081C36.8558 47.8981 36.8284 48.0954 36.8222 48.518C36.8175 48.8402 36.8241 49.2456 36.8325 49.7665C36.8361 49.9916 36.8401 50.2382 36.8437 50.509L36.3438 50.5156L36.8437 50.5079C36.8449 50.5828 36.846 50.6562 36.8471 50.7281C36.8609 51.6309 36.8711 52.2957 36.9076 52.8016C36.9479 53.3589 37.0169 53.6432 37.1055 53.8065C37.1719 53.9288 37.2645 54.0139 37.5075 54.0957C37.7645 54.1823 38.113 54.2406 38.6481 54.3302C38.6868 54.3367 38.7264 54.3433 38.7671 54.3501C38.9181 54.3734 39.056 54.3969 39.1718 54.4267C39.2836 54.4555 39.4259 54.5021 39.5511 54.5995C39.8456 54.8285 39.8443 55.1727 39.8438 55.326C39.8438 55.3322 39.8438 55.3382 39.8438 55.3438C39.8438 55.347 39.8439 55.3514 39.844 55.357C39.8462 55.4353 39.8545 55.7344 39.6144 55.9506C39.5026 56.0513 39.3727 56.1028 39.2642 56.1335C39.153 56.165 39.0253 56.1853 38.8852 56.2003C38.3487 56.2576 37.3097 56.2655 35.3342 56.2806L35.2541 56.2812C35.254 56.2812 35.2539 56.2812 35.2538 56.2812C33.3409 56.2968 32.2976 56.3011 31.7255 56.2708C31.4514 56.2563 31.2249 56.2321 31.0534 56.1705C30.9566 56.1358 30.8512 56.0804 30.761 55.9862C30.6703 55.8915 30.6275 55.7911 30.6047 55.7233C30.5513 55.5678 30.5136 55.3836 30.5433 55.1887C30.5752 54.9786 30.6784 54.8024 30.8285 54.6665C31.0887 54.4308 31.4901 54.3203 31.909 54.2427L31.9113 54.2423C32.3443 54.1642 32.6209 54.045 32.7935 53.9113C32.9527 53.788 33.0463 53.6357 33.087 53.4221L33.0896 53.4081L33.0924 53.397C33.0913 53.4015 33.0906 53.404 33.0904 53.4039C33.0894 53.4038 33.0944 53.3645 33.1 53.2549C33.106 53.1378 33.1115 52.9756 33.1164 52.7714C33.126 52.3636 33.1328 51.8007 33.1367 51.1221C33.1445 49.7657 33.1406 47.9556 33.125 46.0197L33.125 46.0185C33.1223 45.5494 33.1201 45.1094 33.118 44.6964C33.111 43.3146 33.1055 42.2364 33.0892 41.3895C33.0679 40.2807 33.0281 39.6065 32.9514 39.1829C32.8764 38.7694 32.7861 38.7127 32.7596 38.6961L32.7585 38.6954C32.7258 38.6748 32.6687 38.6504 32.5457 38.6207C32.469 38.6022 32.4005 38.5885 32.3186 38.5722C32.2486 38.5583 32.1688 38.5424 32.0656 38.5198M32.0656 38.5198C31.597 38.4183 31.1947 38.2967 30.926 38.1026C30.7794 37.9968 30.6427 37.8484 30.5759 37.6434C30.5088 37.4377 30.5335 37.2401 30.5882 37.0763L30.5911 37.0675L30.5943 37.0588C30.6159 37.0012 30.6574 36.9037 30.7449 36.81C30.8329 36.7156 30.9366 36.6574 31.0364 36.6192C31.2117 36.5521 31.4471 36.5217 31.7417 36.4995C32.3556 36.4532 33.492 36.4296 35.6156 36.3907C38.7757 36.3285 40.7085 36.3453 42.0648 36.5775C43.4728 36.8185 44.2747 37.294 45.1759 38.095L45.177 38.096C47.1402 39.8507 47.4068 42.5413 45.864 44.7537C45.515 45.2594 45.007 45.7632 44.4683 46.1848C43.9304 46.6057 43.3314 46.9682 42.7852 47.1712M32.0656 38.5198C32.0657 38.5199 32.0659 38.5199 32.066 38.5199L32.1719 38.0312L32.065 38.5197C32.0652 38.5197 32.0654 38.5198 32.0656 38.5198ZM42.7852 47.1712C42.7845 47.1714 42.7839 47.1717 42.7833 47.1719L42.6094 46.7032L42.7867 47.1706C42.7862 47.1708 42.7857 47.171 42.7852 47.1712ZM42.7852 47.1712C42.6617 47.2181 42.5467 47.2653 42.4464 47.3095M42.4464 47.3095C42.4451 47.3074 42.4438 47.3053 42.4425 47.3033C42.3706 47.1894 42.3179 47.1008 42.2848 47.0395C42.271 47.014 42.2635 46.9985 42.2602 46.9912M42.4464 47.3095C42.3724 47.3422 42.3065 47.3732 42.2513 47.4011C42.184 47.4352 42.1457 47.4582 42.1303 47.4688C42.1208 47.4753 42.1348 47.4671 42.1565 47.4447C42.1675 47.4334 42.1921 47.4069 42.2163 47.3657C42.2387 47.3278 42.2812 47.2431 42.2812 47.125C42.2812 47.0616 42.2674 47.0119 42.2602 46.9912M42.4464 47.3095C42.5889 47.5347 42.7899 47.8327 43.0208 48.1623C43.487 48.8278 44.0611 49.6019 44.4963 50.1364M42.2602 46.9912C42.256 46.9791 42.2541 46.9769 42.2585 46.9875C42.2589 46.9883 42.2594 46.9895 42.2602 46.9912ZM44.4963 50.1364C44.4961 50.1362 44.4959 50.1359 44.4957 50.1357L44.1095 50.453L44.4971 50.1374C44.4968 50.1371 44.4965 50.1367 44.4963 50.1364ZM37.8152 46.8605C37.6933 46.8522 37.5913 46.8438 37.4931 46.8356C37.4262 46.83 37.3611 46.8246 37.2927 46.8195C37.1408 46.8082 36.9837 46.7994 36.8392 46.8086C36.6938 46.8179 36.521 46.8473 36.3574 46.9414C36.1826 47.042 36.0636 47.19 35.9866 47.3588C35.8541 47.6489 35.8289 48.0491 35.8223 48.5035C35.8174 48.8419 35.8243 49.2712 35.8329 49.802C35.8365 50.0241 35.8404 50.2639 35.8438 50.5222L35.8438 50.5234M37.8152 46.8605L35.8438 50.5234M35.8438 50.5234C35.845 50.6028 35.8462 50.6809 35.8474 50.7574C35.8609 51.6439 35.8715 52.3378 35.9102 52.8737C35.9515 53.4448 36.028 53.9174 36.2265 54.2833C36.4473 54.6903 36.7834 54.907 37.1883 55.0434C37.435 55.1265 37.7318 55.1872 38.0668 55.2461M35.8438 50.5234L38.0668 55.2461M38.0668 55.2461C37.4787 55.2639 36.591 55.271 35.2462 55.2813L35.2459 55.2813C33.404 55.2962 32.4059 55.3001 31.8549 55.2759C31.9231 55.2593 32.001 55.2427 32.0897 55.2263C32.6094 55.1324 33.059 54.9705 33.4058 54.702C33.7642 54.4244 33.9827 54.0557 34.068 53.6162C34.0866 53.5275 34.0937 53.4034 34.0987 53.3061C34.1054 53.1756 34.1111 53.0029 34.1161 52.795C34.1259 52.3785 34.1328 51.8087 34.1367 51.1279C34.1445 49.7657 34.1406 47.9511 34.125 46.0124C34.1223 45.5466 34.1201 45.1087 34.118 44.6969C34.111 43.313 34.1055 42.2249 34.089 41.3703C34.0679 40.2701 34.0285 39.5185 33.9353 39.0046C33.8415 38.487 33.6728 38.0897 33.2918 37.8495C33.1216 37.7422 32.9396 37.687 32.7804 37.6486C32.6967 37.6284 32.5875 37.6063 32.481 37.5847C32.4095 37.5703 32.3392 37.556 32.2787 37.5428L32.2778 37.5426C32.1837 37.5222 32.0998 37.5023 32.0252 37.4831C32.6464 37.4478 33.726 37.4255 35.6342 37.3905L35.6349 37.3905C38.8182 37.3278 40.651 37.35 41.8961 37.5631C43.0895 37.7674 43.7251 38.1434 44.5111 38.8421L38.0668 55.2461ZM38.8412 55.4048C38.8411 55.4046 38.8414 55.4015 38.8422 55.396C38.8418 55.4022 38.8413 55.4049 38.8412 55.4048ZM41.1572 45.9944L41.1584 45.9939C42.9107 45.2755 43.8602 43.7039 43.9484 42.1315C44.0368 40.556 43.2576 38.9537 41.5563 38.2279C41.1531 38.0551 40.8604 37.9488 40.4053 37.8959C39.983 37.8469 39.4175 37.8438 38.4688 37.8438L38.4236 37.8437C37.943 37.8437 37.5125 37.8436 37.1723 37.9092C36.7838 37.984 36.44 38.1574 36.2148 38.5426C36.0198 38.8763 35.9484 39.3179 35.9112 39.8302C35.8732 40.3538 35.8672 41.0434 35.8596 41.9293L35.8594 41.9453C35.8594 41.9458 35.8594 41.9464 35.8594 41.947C35.8438 42.9416 35.8398 43.8709 35.8457 44.5648C35.8487 44.9114 35.8541 45.2025 35.8619 45.4147C35.8658 45.52 35.8704 45.6111 35.8762 45.6817C35.879 45.7164 35.8826 45.7528 35.8875 45.7865C35.8876 45.7868 35.8877 45.7874 35.8878 45.7881C35.8894 45.8007 35.8989 45.8718 35.9311 45.9469L35.9311 45.947C36.0114 46.1344 36.1674 46.2212 36.2333 46.2539C36.3157 46.2946 36.4027 46.32 36.4764 46.3371C36.6266 46.3722 36.8103 46.3931 37.0025 46.4059C37.3924 46.4318 37.8946 46.4286 38.4108 46.4037C38.9289 46.3787 39.4742 46.3312 39.9527 46.2651C40.4166 46.201 40.8638 46.1137 41.1572 45.9944ZM42.95 42.0755C42.882 43.2882 42.152 44.5055 40.7795 45.0684C40.6117 45.1365 40.2741 45.2112 39.8159 45.2745C39.3715 45.3358 38.8563 45.3811 38.3626 45.4049C37.8671 45.4288 37.4064 45.4305 37.0688 45.4081C36.9889 45.4028 36.9199 45.3963 36.8617 45.3893C36.8615 45.3855 36.8614 45.3817 36.8612 45.3778C36.8539 45.1794 36.8486 44.8991 36.8457 44.5563C36.8399 43.8717 36.8437 42.9501 36.8593 41.961L36.8594 41.9575C36.8672 41.048 36.8732 40.3904 36.9086 39.9027C36.9451 39.3999 37.0095 39.1647 37.0782 39.0472C37.1167 38.9813 37.1645 38.9291 37.3614 38.8911C37.596 38.8459 37.9285 38.8438 38.4688 38.8438C39.4419 38.8438 39.9388 38.8485 40.29 38.8892C40.6083 38.9262 40.8 38.9918 41.1624 39.1471L41.1633 39.1474C42.4301 39.6875 43.0179 40.8661 42.95 42.0755ZM36.8763 45.6368C36.8789 45.6494 36.8786 45.6525 36.8769 45.6409C36.8768 45.6402 36.8766 45.6388 36.8763 45.6368ZM51.7674 41.5696L51.7692 41.5699C52.8055 41.7599 54.1228 41.6067 55.1003 41.1952L55.1003 41.1952L55.1064 41.1926C55.8659 40.8608 56.4393 40.3962 56.8304 39.7C57.2116 39.0216 57.3952 38.1659 57.4676 37.0963L57.4677 37.0954C57.4696 37.0656 57.4716 37.036 57.4736 37.0067C57.4975 36.6479 57.5189 36.3264 57.5001 36.0734C57.4788 35.788 57.3985 35.4576 57.094 35.2326C56.8325 35.0394 56.4904 34.9955 56.173 34.9789C55.8635 34.9628 55.4614 34.9713 54.9676 34.9817C54.9236 34.9826 54.8788 34.9835 54.8334 34.9845L54.8304 34.9846L54.8189 34.9849C54.391 34.9963 54.0553 35.0053 53.7999 35.0218C53.5545 35.0376 53.3249 35.0626 53.1406 35.1301C53.04 35.1669 52.9324 35.2233 52.838 35.3147C52.7403 35.4094 52.6805 35.5188 52.6455 35.6266C52.5925 35.7898 52.5932 35.9772 52.5937 36.096C52.5937 36.1062 52.5938 36.1159 52.5938 36.125L52.5937 36.148C52.5937 36.2798 52.5936 36.4238 52.6096 36.5438C52.6276 36.6791 52.6768 36.8818 52.8569 37.0389C53.0191 37.1804 53.2139 37.217 53.3368 37.2336C53.4631 37.2506 53.6206 37.2573 53.7868 37.2643L53.8024 37.265C53.8032 37.265 53.8039 37.265 53.8047 37.2651C54.1867 37.2848 54.4431 37.3043 54.6208 37.337C54.6793 37.3477 54.7194 37.3584 54.7459 37.3668C54.7455 37.3787 54.7446 37.3928 54.7431 37.4097C54.7304 37.5472 54.6835 37.7484 54.5964 38.0692C54.3941 38.7778 53.6857 39.1914 52.8691 39.1914C52.0515 39.1914 51.3487 38.7773 51.1539 38.0703L51.1539 38.0703L51.1522 38.0644C51.1183 37.947 51.0812 37.6714 51.0541 37.266C51.0281 36.8769 51.0136 36.4101 51.0117 35.9394C51.0098 35.4686 51.0204 35 51.0436 34.6071C51.0676 34.1989 51.1032 33.9159 51.1382 33.7895L51.1401 33.7825L51.1419 33.7754C51.2904 33.1698 51.787 32.7553 52.4277 32.6224C53.0689 32.4894 53.8018 32.6549 54.3373 33.1694L54.3462 33.1783C54.4763 33.3084 54.5934 33.4256 54.6969 33.5142C54.8047 33.6066 54.9387 33.705 55.1093 33.7573C55.291 33.8131 55.4577 33.7999 55.6007 33.7699C55.7241 33.7441 55.8627 33.6979 55.9979 33.6528L56.0105 33.6486C56.2131 33.5875 56.4101 33.5158 56.5703 33.4179C56.7371 33.3159 56.9227 33.1487 56.9837 32.8803C57.0412 32.6273 56.9602 32.3985 56.8765 32.2335C56.7902 32.0637 56.6618 31.8862 56.5161 31.7041C55.7356 30.7201 54.3506 30.2419 53.0354 30.1898C51.7198 30.1378 50.3011 30.5053 49.4462 31.4253L49.4461 31.4254C49.0081 31.8971 48.7096 32.3263 48.5282 32.9428C48.3555 33.5293 48.2971 34.2605 48.2659 35.3127C48.203 37.2323 48.3641 38.6716 48.9171 39.6997C49.4964 40.7769 50.4586 41.3247 51.7674 41.5696ZM54.744 37.3155C54.744 37.3155 54.7442 37.3162 54.7444 37.3177L54.744 37.3155ZM49.2654 35.3445L49.2654 35.3429C49.2967 34.2861 49.3554 33.6737 49.4875 33.2252C49.6107 32.8065 49.8044 32.5091 50.1789 32.1059C50.7615 31.479 51.8428 31.1435 52.9959 31.1891C54.149 31.2347 55.201 31.6546 55.7331 32.3262L55.7346 32.328C55.8327 32.4506 55.8998 32.5439 55.944 32.6149C55.8888 32.6373 55.8146 32.6633 55.7157 32.693L55.7084 32.6951L55.7013 32.6975C55.5379 32.752 55.4555 32.7786 55.3959 32.7911C55.395 32.7913 55.3942 32.7915 55.3934 32.7916C55.3827 32.7838 55.3676 32.772 55.3475 32.7548C55.277 32.6944 55.1874 32.6052 55.0411 32.4589L55.0411 32.4589L55.0346 32.4527C54.2423 31.6882 53.1643 31.4483 52.2246 31.6432C51.2854 31.838 50.4321 32.4837 50.1723 33.5303C50.107 33.7715 50.0688 34.149 50.0453 34.5482C50.0206 34.9668 50.0097 35.4571 50.0117 35.9434C50.0137 36.4297 50.0286 36.918 50.0563 37.3327C50.0828 37.7292 50.1235 38.1043 50.1906 38.3387C50.5436 39.6142 51.7618 40.1914 52.8691 40.1914C53.9774 40.1914 55.198 39.6137 55.5592 38.3395L55.5606 38.3342C55.6449 38.0238 55.7169 37.7395 55.7389 37.5015C55.7609 37.2619 55.7437 36.96 55.5281 36.7115C55.3283 36.4811 55.0412 36.3975 54.8016 36.3535C54.5494 36.3071 54.2284 36.2856 53.8539 36.2663L53.8494 36.2661C53.741 36.2615 53.6587 36.2578 53.5941 36.2537C53.5938 36.2165 53.5938 36.1744 53.5938 36.125C53.5938 36.094 53.5939 36.0678 53.5942 36.0457C53.654 36.0369 53.7404 36.0277 53.8642 36.0197C54.0984 36.0046 54.4147 35.996 54.8556 35.9842C54.8944 35.9834 54.9324 35.9826 54.9697 35.9819C55.4852 35.9711 55.85 35.9635 56.121 35.9776C56.264 35.985 56.3608 35.9978 56.4267 36.0133C56.4553 36.0199 56.4741 36.0262 56.4856 36.0308C56.491 36.0498 56.4982 36.0857 56.5028 36.1478C56.5162 36.3274 56.4995 36.5811 56.4722 36.9932L56.4699 37.0287C56.4016 38.0372 56.2337 38.7206 55.9586 39.2102C55.694 39.6812 55.3073 40.0131 54.709 40.2749C53.9058 40.6122 52.7882 40.7398 51.9507 40.5865C50.8381 40.3783 50.1911 39.9574 49.7978 39.2261C49.3781 38.4458 49.2033 37.2369 49.2654 35.3445ZM56.0057 32.7352C56.0057 32.7351 56.0055 32.7345 56.0052 32.7332L56.0057 32.7352ZM56.4785 36.0125C56.4787 36.0122 56.4799 36.0139 56.4817 36.0186C56.4793 36.0151 56.4784 36.0127 56.4785 36.0125ZM69.5625 44.9531C69.5625 58.5053 58.5674 69.5 45.0312 69.5C31.4797 69.5 20.5 58.5055 20.5 44.9531C20.5 31.4007 31.4797 20.4062 45.0312 20.4062C58.5674 20.4062 69.5625 31.4009 69.5625 44.9531Z" stroke="#A5ADB9"/>
<path d="M32.0652 38.5198C32.1685 38.5424 32.2484 38.5583 32.3184 38.5723C32.4004 38.5886 32.4689 38.6022 32.5456 38.6207C32.6686 38.6504 32.7257 38.6749 32.7583 38.6955L32.7595 38.6962C32.7859 38.7128 32.8763 38.7694 32.9512 39.183C33.028 39.6065 33.0677 40.2808 33.0891 41.3896C33.1053 42.2365 33.1108 43.3146 33.1178 44.6964C33.1199 45.1093 33.1222 45.5494 33.1249 46.0186L33.1249 46.0197C33.1405 47.9557 33.1444 49.7658 33.1366 51.1222C33.1327 51.8007 33.1259 52.3637 33.1162 52.7714C33.1114 52.9757 33.1059 53.1379 33.0999 53.255C33.0942 53.3645 33.0892 53.4038 33.0902 53.404C33.0905 53.404 33.0911 53.4017 33.0921 53.3975L33.0895 53.4082L33.0868 53.4221C33.0461 53.6357 32.9525 53.7881 32.7933 53.9114C32.6207 54.0451 32.3442 54.1643 31.9111 54.2424L31.9088 54.2428C31.4899 54.3204 31.0886 54.4309 30.8283 54.6665C30.6782 54.8024 30.5751 54.9787 30.5431 55.1888C30.5135 55.3836 30.5511 55.5678 30.6045 55.7234C30.6273 55.7911 30.6701 55.8916 30.7608 55.9863C30.851 56.0805 30.9565 56.1358 31.0532 56.1706C31.2248 56.2322 31.4512 56.2563 31.7253 56.2709C32.2974 56.3012 33.3407 56.2969 35.2537 56.2813C35.2537 56.2813 35.2538 56.2813 35.2539 56.2813L35.3341 56.2807C37.3096 56.2656 38.3486 56.2577 38.885 56.2004C39.0252 56.1854 39.1529 56.1651 39.264 56.1336C39.3726 56.1028 39.5025 56.0514 39.6143 55.9507C39.8543 55.7344 39.846 55.4354 39.8439 55.3571C39.8437 55.3515 39.8436 55.347 39.8436 55.3438C39.8436 55.3382 39.8436 55.3323 39.8436 55.3261C39.8442 55.1728 39.8454 54.8286 39.551 54.5995C39.4258 54.5022 39.2835 54.4555 39.1716 54.4267C39.0558 54.3969 38.9178 54.3734 38.7667 54.3501C38.7261 54.3433 38.6865 54.3367 38.6479 54.3302C38.1128 54.2407 37.7644 54.1824 37.5074 54.0958C37.2643 54.0139 37.1717 53.9289 37.1054 53.8066C37.0168 53.6432 36.9478 53.359 36.9075 52.8017C36.8709 52.2957 36.8607 51.631 36.8469 50.7283C36.8458 50.6566 36.8447 50.5834 36.8435 50.5086C36.84 50.238 36.836 49.9915 36.8324 49.7666C36.8239 49.2457 36.8174 48.8403 36.8221 48.5181C36.8282 48.0954 36.8556 47.8982 36.8834 47.8082C36.8892 47.8076 36.8956 47.8071 36.9028 47.8067C36.9722 47.8022 37.069 47.8057 37.2181 47.8168C37.2679 47.8205 37.3273 47.8254 37.3924 47.8308C37.5 47.8397 37.6236 47.8499 37.7464 47.8582C38.3284 47.8998 38.4328 47.9229 38.5674 48.03C38.653 48.0981 38.7612 48.2154 38.9295 48.4444C39.0964 48.6715 39.2999 48.9765 39.5838 49.4024L39.5852 49.4045C41.279 51.9179 42.4845 53.5405 43.5612 54.5888C44.6623 55.6607 45.6392 56.1427 46.8554 56.3811M32.0652 38.5198C32.0651 38.5198 32.065 38.5198 32.0649 38.5198L32.1717 38.0313L32.0658 38.52C32.0656 38.5199 32.0654 38.5199 32.0652 38.5198ZM32.0652 38.5198C31.5967 38.4183 31.1945 38.2967 30.9259 38.1027C30.7793 37.9968 30.6425 37.8484 30.5757 37.6435C30.5087 37.4378 30.5334 37.2402 30.588 37.0763L30.5909 37.0675L30.5942 37.0589C30.6158 37.0013 30.6573 36.9038 30.7447 36.8101C30.8328 36.7157 30.9364 36.6575 31.0362 36.6193C31.2115 36.5522 31.447 36.5217 31.7415 36.4995C32.3554 36.4532 33.4918 36.4297 35.6155 36.3908C38.7756 36.3285 40.7083 36.3454 42.0647 36.5775C43.4726 36.8185 44.2745 37.294 45.1758 38.0951L45.1768 38.096C47.1401 39.8508 47.4066 42.5414 45.8638 44.7538C45.5149 45.2594 45.0069 45.7633 44.4681 46.1849C43.9302 46.6057 43.3313 46.9683 42.785 47.1713C42.6616 47.2181 42.5465 47.2654 42.4463 47.3096C42.5888 47.5348 42.7897 47.8327 43.0207 48.1624C43.4869 48.8279 44.0611 49.6021 44.4962 50.1366C46.886 53.0451 48.0717 54.0316 49.2189 54.3285L49.2213 54.3291C49.4413 54.3873 49.6385 54.4506 49.8061 54.5241C49.9696 54.5958 50.1348 54.6898 50.2647 54.8235C50.4057 54.9686 50.5022 55.1589 50.5075 55.3852C50.5125 55.594 50.4382 55.7773 50.3548 55.9218L50.3519 55.9269L50.3519 55.9268C50.2034 56.1774 49.9506 56.3158 49.7292 56.396C49.4964 56.4802 49.222 56.5279 48.9313 56.5495C48.3478 56.5927 47.6216 56.5358 46.8554 56.3811M46.8554 56.3811C46.8549 56.381 46.8544 56.3809 46.8539 56.3808L46.953 55.8908L46.8569 56.3814C46.8564 56.3813 46.8559 56.3812 46.8554 56.3811ZM51.7691 41.57L51.7673 41.5697C50.4584 41.3248 49.4962 40.7769 48.9169 39.6998C48.364 38.6716 48.2028 37.2324 48.2657 35.3127C48.2969 34.2605 48.3554 33.5294 48.528 32.9429C48.7095 32.3264 49.0079 31.8972 49.446 31.4255L49.4461 31.4253C50.301 30.5054 51.7197 30.1379 53.0352 30.1899C54.3504 30.2419 55.7354 30.7201 56.5159 31.7042M51.7691 41.57L48.7655 35.3282C48.828 33.2188 48.9998 32.6407 49.8123 31.7657C51.2498 30.2188 54.8123 30.3594 56.1248 32.0157C56.6873 32.7188 56.6405 32.9376 55.8592 33.1719M51.7691 41.57C52.8053 41.76 54.1227 41.6068 55.1001 41.1953L55.1001 41.1953L55.1062 41.1926C55.8657 40.8609 56.4391 40.3962 56.8303 39.7001C57.2115 39.0217 57.3951 38.166 57.4675 37.0963L57.4675 37.0955C57.4695 37.0657 57.4715 37.0361 57.4734 37.0067C57.4973 36.6479 57.5188 36.3264 57.4999 36.0735C57.4786 35.7881 57.3983 35.4576 57.0938 35.2327C56.8323 35.0395 56.4902 34.9956 56.1728 34.979C55.8633 34.9629 55.4613 34.9713 54.9674 34.9817C54.9234 34.9827 54.8787 34.9836 54.8333 34.9845L54.8302 34.9846L54.8188 34.9849C54.3909 34.9964 54.0552 35.0054 53.7997 35.0219C53.5544 35.0377 53.3247 35.0627 53.1405 35.1301C53.0399 35.167 52.9322 35.2233 52.8379 35.3148C52.7402 35.4095 52.6804 35.5189 52.6454 35.6267C52.5924 35.7899 52.5931 35.9773 52.5935 36.0961C52.5936 36.1063 52.5936 36.116 52.5936 36.1251L52.5936 36.148C52.5935 36.2799 52.5935 36.4239 52.6094 36.5438C52.6275 36.6792 52.6767 36.8819 52.8567 37.039C53.0189 37.1804 53.2137 37.2171 53.3366 37.2336C53.463 37.2506 53.6204 37.2573 53.7866 37.2644L53.8022 37.265C53.803 37.2651 53.8037 37.2651 53.8045 37.2651C54.1865 37.2849 54.4429 37.3044 54.6206 37.337C54.6792 37.3478 54.7193 37.3584 54.7458 37.3669C54.7453 37.3787 54.7445 37.3929 54.7429 37.4097C54.7302 37.5472 54.6833 37.7485 54.5962 38.0693C54.394 38.7779 53.6855 39.1915 52.869 39.1915C52.0513 39.1915 51.3486 38.7774 51.1538 38.0703L51.1538 38.0703L51.1521 38.0644C51.1182 37.947 51.081 37.6715 51.0539 37.266C51.0279 36.877 51.0135 36.4102 51.0116 35.9394C51.0096 35.4687 51.0202 35 51.0434 34.6071C51.0675 34.1989 51.103 33.916 51.138 33.7896L51.14 33.7825L51.1417 33.7754C51.2902 33.1698 51.7868 32.7554 52.4276 32.6225C53.0687 32.4895 53.8017 32.6549 54.3371 33.1695M51.7691 41.57L54.3371 33.1695M56.5159 31.7042C56.5162 31.7045 56.5165 31.7048 56.5167 31.7052L56.1249 32.0156L56.5153 31.7033C56.5155 31.7036 56.5157 31.7039 56.5159 31.7042ZM56.5159 31.7042C56.6616 31.8863 56.7901 32.0638 56.8763 32.2336C56.9601 32.3985 57.041 32.6274 56.9835 32.8804C56.9225 33.1488 56.7369 33.316 56.5701 33.4179C56.41 33.5158 56.2129 33.5875 56.0104 33.6486M56.0104 33.6486L56.0173 33.6463L55.8592 33.1719M56.0104 33.6486L55.9977 33.6528C55.8625 33.6979 55.7239 33.7442 55.6006 33.77C55.4575 33.7999 55.2908 33.8131 55.1091 33.7574C54.9385 33.7051 54.8046 33.6066 54.6968 33.5143C54.5933 33.4257 54.4762 33.3085 54.3462 33.1785L54.3371 33.1695M56.0104 33.6486C56.0079 33.6494 56.0054 33.6501 56.0029 33.6509L55.8592 33.1719M55.8592 33.1719L54.3371 33.1695M42.2584 46.9875C42.2539 46.9769 42.2558 46.9792 42.26 46.9912C42.2593 46.9896 42.2587 46.9884 42.2584 46.9875ZM41.1623 39.1471L41.1631 39.1475C42.43 39.6876 43.0177 40.8662 42.9499 42.0756C42.8818 43.2882 42.1519 44.5054 40.7796 45.0684C40.6119 45.1365 40.2742 45.2112 39.8157 45.2745C39.3714 45.3359 38.8561 45.3811 38.3625 45.4049C37.867 45.4289 37.4063 45.4306 37.0686 45.4081C36.9887 45.4028 36.9197 45.3964 36.8615 45.3894C36.8614 45.3856 36.8612 45.3818 36.8611 45.3779C36.8538 45.1794 36.8484 44.8992 36.8455 44.5564C36.8397 43.8718 36.8436 42.9502 36.8592 41.9611H36.8592L36.8592 41.9575C36.8671 41.0481 36.873 40.3905 36.9084 39.9027C36.945 39.4 37.0093 39.1648 37.078 39.0473C37.1165 38.9814 37.1643 38.9291 37.3613 38.8912C37.5959 38.846 37.9283 38.8438 38.4686 38.8438C39.4417 38.8438 39.9387 38.8485 40.2898 38.8893C40.6082 38.9263 40.7999 38.9918 41.1623 39.1471ZM36.8762 45.6368C36.8787 45.6495 36.8784 45.6526 36.8767 45.641C36.8766 45.6403 36.8764 45.6389 36.8762 45.6368ZM54.7438 37.3156C54.7439 37.3156 54.744 37.3163 54.7443 37.3178L54.7438 37.3156Z" stroke="#A5ADB9"/>
</g>
</g>
<defs>
<clipPath id="clip0_527_205">
<rect width="90" height="90" fill="white"/>
</clipPath>
<clipPath id="clip1_527_205">
<rect width="50" height="50" fill="white" transform="translate(20 20)"/>
</clipPath>
</defs>
</svg>
