<svg width="90" height="90" viewBox="0 0 90 90" fill="none" xmlns="http://www.w3.org/2000/svg">
<g clip-path="url(#clip0_514_148)">
<path d="M24.6874 32.5006C24.6874 30.4818 26.3209 28.8335 28.3332 28.8335H61.6665C63.6821 28.8335 65.3332 30.4847 65.3332 32.5002V57.5002C65.3332 59.5157 63.6821 61.1668 61.6665 61.1668H28.3332C26.3177 61.1668 24.6666 59.5158 24.6665 57.5004L24.6874 32.5006ZM61.9315 37.0908L62.1665 36.944V36.6668V32.5002V31.5981L61.4015 32.0762L44.9999 42.3272L28.5982 32.0762L27.8332 31.5981V32.5002V36.6668V36.944L28.0682 37.0908L44.7349 47.5075L44.9999 47.6731L45.2649 47.5075L61.9315 37.0908Z" stroke="#A5ADB9"/>
</g>
<defs>
<clipPath id="clip0_514_148">
<rect width="90" height="90" fill="white"/>
</clipPath>
</defs>
</svg>
