<svg width="90" height="90" viewBox="0 0 90 90" fill="none" xmlns="http://www.w3.org/2000/svg">
<g clip-path="url(#clip0_514_162)">
<path d="M27.7506 54.2396L27.7646 54.2398L27.7785 54.2408C29.1922 54.3393 30.2549 55.0641 30.9482 55.7342C31.2966 56.0709 31.5596 56.401 31.7361 56.6477C31.8245 56.7714 31.8919 56.875 31.938 56.9492C31.9611 56.9864 31.9789 57.0163 31.9915 57.0377L32.0063 57.0635L32.0091 57.0685C33.0397 58.8326 34.3543 59.4224 35.5578 59.5299C36.6574 59.6281 37.7024 59.3251 38.3986 59.0428C38.586 57.9589 38.9617 57.0848 39.4333 56.4252C36.9194 56.0539 34.3529 55.3049 32.3387 53.6096C30.0463 51.6801 28.5479 48.594 28.5479 43.6958C28.5479 40.9521 29.4926 38.6807 31.0493 36.8784C30.7057 35.8782 30.1343 33.3962 31.4016 30.1852L31.4886 29.9646L31.7145 29.8925L31.8667 30.3688C31.7145 29.8925 31.715 29.8923 31.7155 29.8921L31.7165 29.8918L31.7187 29.8911L31.7238 29.8896L31.7362 29.886C31.7455 29.8833 31.7569 29.8802 31.7705 29.8768C31.7977 29.8701 31.8333 29.8621 31.8776 29.8542C31.9661 29.8382 32.0888 29.8222 32.2467 29.815C32.5627 29.8006 33.0167 29.8218 33.6169 29.9482C34.7847 30.1943 36.5015 30.838 38.8328 32.3888C40.8084 31.8623 42.9106 31.5998 44.9975 31.5896H45.0025C47.0896 31.5998 49.1937 31.8624 51.1732 32.3889C53.5024 30.8381 55.2171 30.1944 56.3835 29.9483C56.9829 29.8218 57.4364 29.8006 57.752 29.815C57.9096 29.8222 58.0322 29.8382 58.1207 29.8542C58.1649 29.8622 58.2005 29.8701 58.2277 29.8769C58.2412 29.8803 58.2527 29.8834 58.262 29.886L58.2744 29.8897L58.2794 29.8912L58.2817 29.8919L58.2827 29.8922C58.2832 29.8924 58.2837 29.8926 58.1312 30.3688L58.2837 29.8926L58.5093 29.9648L58.5963 30.185C59.8649 33.3963 59.2949 35.8779 58.9511 36.878C60.5138 38.6815 61.45 40.9553 61.45 43.6958C61.45 48.6063 59.9491 51.6922 57.6511 53.6157C55.6345 55.3037 53.0653 56.0429 50.548 56.4064C51.2451 57.3667 51.75 58.7853 51.75 60.6604V67.5208C51.75 67.7675 51.8258 67.9779 51.9544 68.1011C52.0617 68.2039 52.2902 68.3265 52.7928 68.2357C62.505 64.9819 69.5 55.8082 69.5 45C69.5 31.4699 58.5301 20.5 45 20.5C31.4719 20.5 20.5 31.4699 20.5 45C20.5 55.8115 27.5021 64.9867 37.2216 68.2371C37.7106 68.3207 37.9371 68.1992 38.0454 68.095C38.1747 67.9707 38.25 67.7616 38.25 67.5208V63.475C35.0053 64.0499 32.9281 63.3273 31.6405 62.3584C30.9663 61.851 30.5282 61.2905 30.2577 60.8535C30.1224 60.6349 30.0284 60.4464 29.9672 60.3093C29.9365 60.2408 29.914 60.1849 29.8986 60.1443C29.8909 60.124 29.8849 60.1076 29.8806 60.0952L29.8786 60.0894C29.3359 58.7149 28.6817 57.8611 28.1788 57.357C27.9262 57.1038 27.71 56.9371 27.5626 56.8364C27.4889 56.786 27.4324 56.7521 27.397 56.732C27.3793 56.722 27.3669 56.7155 27.3604 56.7121L27.3568 56.7102L27.3549 56.7093L27.3219 56.6939L27.2885 56.671C26.7172 56.2801 26.331 55.921 26.1796 55.5595C26.0934 55.3538 26.0723 55.1198 26.1704 54.8954C26.2617 54.6866 26.4252 54.5585 26.5595 54.4822C26.8174 54.3357 27.1393 54.2839 27.3434 54.2616C27.4554 54.2494 27.5548 54.2439 27.6263 54.2415C27.6623 54.2402 27.6918 54.2398 27.713 54.2396L27.7385 54.2395L27.7463 54.2396H27.7489H27.7506ZM27.7506 54.2396L27.7437 54.7396C27.7506 54.2396 27.7508 54.2396 27.7506 54.2396Z" stroke="#A5ADB9"/>
</g>
<defs>
<clipPath id="clip0_514_162">
<rect width="90" height="90" fill="white"/>
</clipPath>
</defs>
</svg>
