<svg width="90" height="90" viewBox="0 0 90 90" fill="none" xmlns="http://www.w3.org/2000/svg">
<g clip-path="url(#clip0_514_153)">
<mask id="mask0_514_153" style="mask-type:luminance" maskUnits="userSpaceOnUse" x="20" y="20" width="50" height="50">
<path d="M70 20H20V70H70V20Z" fill="white"/>
</mask>
<g mask="url(#mask0_514_153)">
<path d="M69.5 48.8939V69.5002H60.1083V52.5023C60.1083 49.7705 59.2915 47.7155 58.0102 46.3515C56.7295 44.9883 55.0186 44.3531 53.3123 44.4072C49.8793 44.516 46.5479 47.3914 46.5479 52.5023V69.5002H37.1958V37.1668H46.5458V41.1564L47.4857 41.3941C49.5395 37.5933 55.0311 35.4642 60.0757 36.3312C62.5756 36.7609 64.9234 37.9233 66.6468 39.9469C68.3679 41.9678 69.5 44.8873 69.5 48.8939ZM29.875 27.2918C29.875 29.8966 27.7826 32.0002 25.2083 32.0002C22.6341 32.0002 20.5417 29.8966 20.5417 27.2918C20.5417 24.6891 22.6342 22.5835 25.2083 22.5835C27.7824 22.5835 29.875 24.6891 29.875 27.2918ZM20.5 69.5002V37.1668H29.9167V69.5002H20.5Z" stroke="#A5ADB9"/>
</g>
</g>
<defs>
<clipPath id="clip0_514_153">
<rect width="90" height="90" fill="white"/>
</clipPath>
</defs>
</svg>
